<?xml version="1.0" encoding="utf-8" ?><svg xmlns="http://www.w3.org/2000/svg" xmlns:xlink="http://www.w3.org/1999/xlink" width="557" height="248" viewBox="0 0 557 248"><path fill="#FCCC04" d="M279.569 33.6347C330.513 31.1028 373.844 70.3883 376.292 121.329C378.741 172.27 339.378 215.529 288.425 217.893C237.591 220.253 194.447 181.007 192.004 130.184C189.561 79.3618 228.742 36.1606 279.569 33.6347ZM301.978 78.3331C303.248 80.3493 304.267 81.9766 305.364 84.1102C308.248 88.7444 308.761 99.0891 308.833 104.575C313.692 105.057 319.486 106.183 324.25 107.103C323.033 105.837 321.247 104.248 322.941 102.534C324.244 101.217 328.63 100.438 330.447 100.499C330.937 100.518 331.426 100.555 331.913 100.61C339.896 92.7027 345.448 97.4749 347.518 96.2051C346.602 94.6908 345.574 92.6098 344.686 91.0098C334.999 73.5648 319.291 62.3684 300.35 56.9053C290.123 55.5761 287.843 54.6591 276.801 55.3516C281.928 59.8657 283.852 65.3922 290.48 67.7728C292.837 68.6193 302.057 75.9981 301.978 78.3331ZM215.53 149.084C215.556 149.082 215.583 149.079 215.609 149.077C215.659 149.06 216.204 148.862 216.207 148.858C218.501 144.779 220.94 140.862 223.547 136.977C223.167 136.538 222.795 136.092 222.432 135.639C216.435 128.247 215.924 116.97 216.886 107.817C216.12 106.804 215.23 105.521 214.29 104.704C209.81 117.977 211.131 135.901 215.53 149.084Z"/><path fill="#FDEDCB" d="M270.734 52.4096C271.438 52.6937 275.19 54.3775 275.597 54.3976C283.664 54.7964 292.591 53.7113 300.35 56.9053C290.123 55.5761 287.843 54.6591 276.801 55.3516C281.928 59.8657 283.852 65.3922 290.48 67.7728C292.837 68.6193 302.057 75.9981 301.978 78.3331C303.248 80.3493 304.267 81.9766 305.364 84.1102C308.248 88.7444 308.761 99.0891 308.833 104.575C313.692 105.057 319.486 106.183 324.25 107.103C323.033 105.837 321.247 104.248 322.941 102.534C324.244 101.217 328.63 100.438 330.447 100.499C330.937 100.518 331.426 100.555 331.913 100.61C339.896 92.7027 345.448 97.4749 347.518 96.2051C349.184 98.1679 351.022 99.4248 352.874 101.136C356.448 104.44 359.703 109.5 359.219 114.569C358.838 118.547 356.721 121.482 353.963 124.207C354.108 126.844 353.75 130.868 353.429 133.539C351.79 148.044 345.683 161.681 335.953 172.563C323.452 186.74 305.753 195.267 286.873 196.208C278.527 196.67 269.21 195.698 261.248 193.141C257.385 191.9 245.134 186.945 242.74 184.341C231.395 177.636 219.157 161.775 215.53 149.084C215.556 149.082 215.583 149.079 215.609 149.077C215.659 149.06 216.204 148.862 216.207 148.858C218.501 144.779 220.94 140.862 223.547 136.977C223.167 136.538 222.795 136.092 222.432 135.639C216.435 128.247 215.924 116.97 216.886 107.817C216.12 106.804 215.23 105.521 214.29 104.704C210.608 98.8474 207.819 92.4779 208.267 85.3969C208.896 75.4779 221.96 77.7699 228.87 78.6041C238.241 66.7237 251.787 60.1681 265.938 56.0253C267.772 54.8648 269.134 53.4425 270.734 52.4096Z"/><path fill="#1D6780" d="M214.29 104.704C210.608 98.8474 207.819 92.4779 208.267 85.3969C208.896 75.4779 221.96 77.7699 228.87 78.6041C230.504 78.9954 231.379 79.167 232.759 80.2282C222.722 92.2041 223.607 107.993 235.854 118.058C237.622 119.511 239.472 120.719 241.428 121.903C244.275 120.187 247.164 118.543 250.094 116.972C248.157 120.632 246.86 124.195 245.655 128.145C259.717 124.052 273.006 121.004 287.538 126.736C301.902 132.934 303.669 140.409 295.368 153.748C292.502 157.26 288.776 161.026 284.945 163.44C273.503 170.649 255.217 176.45 241.971 178.04C242.336 180.222 242.528 182.149 242.74 184.341C231.395 177.636 219.157 161.775 215.53 149.084C215.556 149.082 215.583 149.079 215.609 149.077C215.659 149.06 216.204 148.862 216.207 148.858C218.501 144.779 220.94 140.862 223.547 136.977C223.167 136.538 222.795 136.092 222.432 135.639C216.435 128.247 215.924 116.97 216.886 107.817C216.12 106.804 215.23 105.521 214.29 104.704Z"/><path fill="#1D6780" d="M305.364 84.1102C308.248 88.7444 308.761 99.0891 308.833 104.575C313.692 105.057 319.486 106.183 324.25 107.103C323.033 105.837 321.247 104.248 322.941 102.534C324.244 101.217 328.63 100.438 330.447 100.499C330.937 100.518 331.426 100.555 331.913 100.61C339.896 92.7027 345.448 97.4749 347.518 96.2051C349.184 98.1679 351.022 99.4248 352.874 101.136C356.448 104.44 359.703 109.5 359.219 114.569C358.838 118.547 356.721 121.482 353.963 124.207C353.126 124.889 351.326 126.28 350.633 126.976C349.602 124.713 348.412 124.296 346.264 123.39C343.86 124.074 343.061 124.542 341.773 126.671L341.535 126.59C342.471 120.367 336.496 119.23 331.716 120.458C331.395 120.298 331.33 120.122 331.097 119.812C331.363 119.107 331.158 119.346 331.956 118.96C337.282 117.608 335.984 111.372 329.334 110.814C329.19 110.568 328.964 109.912 328.853 109.619C328.364 109.087 326.841 108.087 326.139 107.843C324.859 107.876 316.14 106.086 313.935 105.851C308.67 105.29 304.426 105.283 299.163 105.227C303.328 99.4125 307.119 91.4121 305.364 84.1102Z"/><path fill="#FEFEFE" d="M322.108 103.389C325.647 101.853 328.566 101.328 332.403 101.463C337.36 106.05 335.21 109.772 328.853 109.619C328.364 109.087 326.841 108.087 326.139 107.843C324.535 106.394 323.414 105.125 322.108 103.389Z"/><path fill="#1D6780" d="M270.734 52.4096C271.438 52.6937 275.19 54.3775 275.597 54.3976C283.664 54.7964 292.591 53.7113 300.35 56.9053C290.123 55.5761 287.843 54.6591 276.801 55.3516C281.928 59.8657 283.852 65.3922 290.48 67.7728C292.837 68.6193 302.057 75.9981 301.978 78.3331C301.492 78.1278 298.673 74.4838 297.896 73.7834C288.361 65.1915 280.462 64.5969 268.634 64.3748C266.222 67.6015 265.407 69.0684 263.731 72.7495C257.278 71.2824 253.578 70.8772 247.03 71.6177C240.289 74.2279 238.155 75.2153 232.759 80.2282C231.379 79.167 230.504 78.9954 228.87 78.6041C238.241 66.7237 251.787 60.1681 265.938 56.0253C267.772 54.8648 269.134 53.4425 270.734 52.4096Z"/><path fill="#263E44" d="M228.87 78.6041C238.241 66.7237 251.787 60.1681 265.938 56.0253C265.64 58.313 263.352 62.3181 262.452 64.7562C258.556 66.632 248.66 68.751 247.03 71.6177C240.289 74.2279 238.155 75.2153 232.759 80.2282C231.379 79.167 230.504 78.9954 228.87 78.6041Z"/><path fill="#FEFEFE" d="M287.538 126.736C288.868 124.528 291.965 122.684 294.174 121.335L296.159 123.642C296.272 125.509 296.312 129.687 298.971 129.081C303.39 128.073 304.71 126.789 305.607 132.623C304.614 135.123 303.923 136.201 302.216 138.297C311.46 141.929 311.385 144.901 301.682 147.359C304.556 148.998 305.948 150.192 308.323 152.509C304.522 155.259 299.627 155.8 295.368 153.748C303.669 140.409 301.902 132.934 287.538 126.736Z"/><path fill="#FEFEFE" d="M331.716 120.458C336.496 119.23 342.471 120.367 341.535 126.59C341.301 126.957 341.026 127.754 340.763 128.054C338.415 130.737 333.679 131.178 330.424 131.725C330.418 127.86 330.649 124.182 331.716 120.458Z"/><path fill="#FEFEFE" d="M329.334 110.814C335.984 111.372 337.282 117.608 331.956 118.96C329.314 118.269 324.331 117.954 324.036 114.737C324.768 112.797 327.412 111.828 329.334 110.814Z"/><path fill="#FEFEFE" d="M341.773 126.671C343.061 124.542 343.86 124.074 346.264 123.39C348.412 124.296 349.602 124.713 350.633 126.976C349.753 129.334 347.436 132.206 344.646 132.031C343.888 131.989 343.184 131.629 342.707 131.039C341.652 129.741 341.583 128.237 341.773 126.671Z"/><path fill="#FA1D00" d="M261.708 87.2772C272.965 83.4894 287.946 83.2472 298.931 88.0158C299.047 91.2622 299.992 103.387 297.024 105.18C296.107 105.202 296.413 105.235 295.559 104.623L294.896 105.377C293.682 106.206 287.627 105.606 285.188 106.021L284.983 106.128C284.481 106.598 281.406 106.925 280.234 107.127C275.089 108.018 270.02 109.914 264.95 110.748C264.744 110.782 264.51 110.495 264.306 110.318C263.257 111.858 255.742 114.167 253.752 114.996C253.445 115.124 253.296 114.969 253.025 114.825L252.837 115.267C249.714 117.658 240.374 103.599 238.538 101.349C240.877 99.7146 243.712 97.1468 246.188 95.3281C251.583 91.3641 255.65 89.6238 261.708 87.2772Z"/><path fill="#860700" d="M261.708 87.2772C272.965 83.4894 287.946 83.2472 298.931 88.0158C299.047 91.2622 299.992 103.387 297.024 105.18C296.107 105.202 296.413 105.235 295.559 104.623L294.896 105.377C293.682 106.206 287.627 105.606 285.188 106.021L284.983 106.128C283.638 104.842 281.766 99.8069 280.006 97.6605C276.605 93.2097 272.436 90.141 266.891 88.9988C265.488 88.7099 262.983 88.0195 261.708 87.2772Z"/><path fill="#FEFEFE" d="M285.401 104.998C288.593 95.9992 290.752 99.0169 295.559 104.623L294.896 105.377C293.682 106.206 287.627 105.606 285.188 106.021L285.401 104.998Z"/><path fill="#CE9A87" d="M285.188 106.021L285.401 104.998C286.647 106.054 292.361 104.773 294.896 105.377C293.682 106.206 287.627 105.606 285.188 106.021Z"/><path fill="#FEFEFE" d="M253.025 114.825C256.156 106.055 256.088 102.36 264.306 110.318C263.257 111.858 255.742 114.167 253.752 114.996C253.445 115.124 253.296 114.969 253.025 114.825Z"/><path d="M246.661 78.8521C248.724 78.7222 254.839 80.6996 254.883 83.1221C251.876 84.0453 248.666 76.466 241.991 83.2945C241.097 84.7192 238.588 89.4474 237.327 89.7994C237.017 88.9904 237.198 88.5678 237.537 87.7035C239.391 82.9729 242.078 80.7728 246.661 78.8521Z"/><path d="M281.308 70.138C283.572 69.8982 290.28 72.1218 289.19 74.8644C287.378 74.6945 286.458 71.9428 281.643 71.7233C279.101 72.8323 277.383 75.2908 274.935 76.0126L274.789 75.7352C276.554 72.8991 278.47 71.7509 281.308 70.138Z"/><path fill="#FCCC04" d="M123.93 32.9621C133.427 32.6947 143.45 33.0335 153.051 32.9184C152.759 36.5952 152.949 42.7575 152.96 46.6251L152.997 71.4274L153.036 151.964C161.115 151.642 169.411 152.152 177.247 151.814C176.945 155.023 177.072 160.528 177.085 163.901C177.1 167.975 176.955 173.34 177.243 177.275C169.15 177.03 161.138 177.296 152.952 177.068C153.442 190.088 152.685 204.02 153.132 217.237C144.528 216.87 132.112 216.902 123.463 217.204L123.393 188.855L123.486 176.99C103.76 177.591 84.3092 177 64.5949 177.061C56.5894 177.085 47.951 176.86 40.0108 177.258C39.8395 171.963 40.0762 166.259 39.9654 160.951C39.9242 158.979 39.8713 154.368 40.8452 152.826C43.451 148.701 46.5112 144.407 49.2909 140.39L67.5868 114.014L106.125 58.2765L117.594 41.6312C119.066 39.5058 122.323 34.5644 123.93 32.9621ZM69.35 151.936L95.1236 151.854C104.454 151.801 114.175 151.637 123.477 152.004C123.365 131.451 123.384 110.898 123.532 90.3463C123.613 85.1678 123.992 79.896 124.187 74.7198C124.267 72.5814 124.688 68.7497 124.49 66.8283C121.489 72.3308 118.584 78.3698 115.143 83.5894C100.49 105.82 85.0891 127.555 70.0988 149.556C69.6791 150.172 68.9596 151.178 69.0555 151.883L69.35 151.936Z"/><path fill="#FCCC04" d="M471.045 32.9112C473.942 32.7676 477.969 32.9257 480.939 32.9463C487.283 33.0117 493.628 32.9817 499.971 32.8563C499.796 37.5434 499.932 42.9995 499.939 47.7373L499.945 73.6931L499.966 152.069C507.492 151.997 517.452 152.275 524.686 151.836C524.439 158.221 524.263 171.05 524.627 177.3C517.219 176.824 507.445 177.071 499.865 177.071C500.245 186.456 499.699 196.65 499.935 206.113C500.026 209.746 499.835 213.403 500.096 217.056C490.369 216.812 480.638 216.813 470.911 217.06C470.687 214.38 470.841 209.566 470.845 206.697L470.876 186.835C470.846 183.568 470.893 180.302 471.018 177.037C464.038 177.331 455.975 176.996 448.881 177.076C428.473 177.305 407.604 176.659 387.251 177.27C387.133 171.176 386.414 158.444 388.031 153.208C388.85 150.557 395.667 141.567 397.734 138.592L417.334 110.287L454.281 57.0302C459.302 49.8173 465.848 39.6583 471.045 32.9112ZM416.375 151.959L450.355 151.943C456.894 151.947 464.592 151.775 471.054 152.108C470.661 144.702 470.89 135.726 470.868 128.167C470.77 113.284 470.892 98.4006 471.233 83.5213C471.296 81.3078 472.079 67.766 471.502 66.8404C469.355 71.093 466.956 76.0005 464.506 80.0332C459.026 89.0558 452.778 97.9013 446.777 106.586L430.939 129.64L420.919 144.153C419.541 146.165 417.039 149.569 415.987 151.564L416.122 151.914L416.375 151.959Z"/></svg>